<?xml version="1.0" encoding="utf-8"?>
<!-- Generator: Adobe Illustrator 19.0.0, SVG Export Plug-In . SVG Version: 6.00 Build 0)  -->
<svg version="1.1" id="Calque_1" xmlns="http://www.w3.org/2000/svg" xmlns:xlink="http://www.w3.org/1999/xlink" x="0px" y="0px"
	 viewBox="-381 264 196 34" style="enable-background:new -381 264 196 34;" xml:space="preserve">
<style type="text/css">
	.st0{fill:#FFFFFF;}
</style>
<path class="st0" d="M-367.1,272c3.3,0,5.7,0.7,7.2,2c1.6,1.3,2.3,3,2.3,5.2c0,0.7-0.1,1.5-0.3,2.4c-0.5,2-1.3,3.7-2.6,5.2
	c-1.2,1.5-2.8,2.6-4.6,3.4c-1.8,0.8-3.8,1.2-5.9,1.2c-3.3,0-5.8-0.7-7.4-2c-1.6-1.3-2.4-3.1-2.4-5.3c0-0.7,0.1-1.6,0.3-2.5
	c0.5-1.9,1.3-3.5,2.6-5c1.3-1.5,2.9-2.6,4.7-3.4C-371.2,272.4-369.2,272-367.1,272z M-367.2,275.2c-0.5,0-1,0.5-1.6,1.4
	c-0.6,0.9-1.2,2.6-2,5.1s-1.2,4.2-1.2,5.3c0,0.5,0.1,0.9,0.3,1.1c0.2,0.2,0.4,0.3,0.7,0.3c0.5,0,1-0.4,1.5-1.3
	c0.6-0.9,1.2-2.7,2.1-5.3c0.7-2.3,1.1-4,1.1-5.1c0-0.5-0.1-0.9-0.3-1C-366.7,275.3-366.9,275.2-367.2,275.2z"/>
<path class="st0" d="M-336,286c0,0.1-0.1,0.2-0.1,0.4c0,0.2,0,0.3,0.1,0.4c0.1,0.1,0.2,0.1,0.4,0.1c0.3,0,0.5-0.1,0.7-0.4
	c0.2-0.3,0.4-0.4,0.4-0.4c0.1,0,0.2,0.1,0.3,0.3c0.1,0.1,0.1,0.3,0.1,0.5c0,0.7-0.2,1.4-0.7,2.1c-0.5,0.6-1.2,1.2-2.1,1.6
	c-0.9,0.4-2,0.6-3.3,0.6c-1.6,0-2.8-0.4-3.8-1.1c-0.9-0.7-1.4-1.7-1.4-3c0-0.9,0.2-1.9,0.6-3l2-5.2c0.1-0.3,0.2-0.6,0.2-0.8
	c0-0.3-0.1-0.6-0.3-0.7c-0.2-0.2-0.4-0.3-0.7-0.3c-0.5,0-0.9,0.2-1.4,0.6c-0.5,0.4-0.8,1.1-1.1,2v-0.1l-2.3,7.3
	c-0.1,0.3-0.1,0.5-0.1,0.8c0,0.3,0.1,0.6,0.2,0.8c0.1,0.2,0.3,0.3,0.5,0.5c0.2,0.2,0.3,0.3,0.4,0.4c0.1,0.1,0.1,0.2,0,0.4
	c-0.1,0.3-0.4,0.5-0.7,0.7c-0.4,0.1-0.9,0.2-1.7,0.2h-8.2c-0.6,0-1.1-0.1-1.4-0.3c-0.3-0.2-0.4-0.5-0.3-0.8c0.1-0.3,0.3-0.5,0.8-0.8
	c0.4-0.2,0.7-0.4,0.9-0.7c0.2-0.3,0.4-0.7,0.6-1.3l5.5-18c0.1-0.2,0.1-0.4,0.1-0.5c0-0.3-0.1-0.5-0.2-0.6c-0.1-0.2-0.3-0.3-0.5-0.5
	c-0.2-0.2-0.4-0.4-0.5-0.5c-0.1-0.1-0.1-0.3,0-0.6c0.1-0.6,0.9-1,2.3-1.4c1.4-0.4,2.8-0.6,4.3-0.6c1.4,0,2.4,0.3,3.1,0.8
	c0.7,0.5,1,1.2,1,2.2c0,0.5-0.1,1-0.3,1.5l-1.9,6.3c0.9-1.2,1.9-2.1,3-2.6c1.1-0.5,2.2-0.7,3.4-0.7c1.5,0,2.6,0.4,3.5,1.3
	c0.9,0.9,1.4,2,1.4,3.5c0,0.7-0.1,1.5-0.4,2.2L-336,286z"/>
<path class="st0" d="M-298.3,286c0,0.1-0.1,0.2-0.1,0.4c0,0.2,0,0.3,0.1,0.4c0.1,0.1,0.2,0.1,0.4,0.1c0.3,0,0.5-0.1,0.7-0.4
	c0.2-0.3,0.4-0.4,0.4-0.4c0.1,0,0.2,0.1,0.3,0.3c0.1,0.1,0.1,0.3,0.1,0.5c0,0.7-0.2,1.4-0.7,2.1c-0.5,0.6-1.2,1.2-2.1,1.6
	c-0.9,0.4-2,0.6-3.3,0.6c-1.6,0-2.8-0.4-3.8-1.1c-0.9-0.7-1.4-1.7-1.4-3c0-0.9,0.2-1.9,0.6-3l2-5.2c0.1-0.3,0.2-0.6,0.2-0.8
	c0-0.3-0.1-0.6-0.3-0.7c-0.2-0.2-0.4-0.3-0.7-0.3c-0.4,0-0.8,0.2-1.3,0.5c-0.4,0.4-0.8,0.9-1.2,1.7l-2,6.4c0,0.1-0.1,0.2-0.1,0.4
	c0,0.2,0,0.3,0.1,0.4c0.1,0.1,0.2,0.1,0.4,0.1c0.3,0,0.5-0.1,0.7-0.4c0.2-0.3,0.4-0.4,0.4-0.4c0.1,0,0.2,0.1,0.3,0.3
	c0.1,0.1,0.1,0.3,0.1,0.5c0,0.7-0.2,1.4-0.7,2.1c-0.5,0.6-1.2,1.2-2.1,1.6c-0.9,0.4-2,0.6-3.3,0.6c-1.6,0-2.8-0.4-3.8-1.1
	c-0.9-0.7-1.4-1.7-1.4-3c0-0.9,0.2-1.9,0.6-3l2-5.2c0.1-0.3,0.2-0.6,0.2-0.8c0-0.3-0.1-0.6-0.3-0.7c-0.2-0.2-0.4-0.3-0.7-0.3
	c-0.4,0-0.8,0.2-1.3,0.5c-0.4,0.3-0.8,0.9-1.1,1.7l-2.4,7.7c-0.1,0.3-0.1,0.5-0.1,0.8c0,0.3,0.1,0.5,0.2,0.7
	c0.1,0.2,0.3,0.3,0.5,0.5c0.2,0.1,0.3,0.3,0.4,0.4c0.1,0.1,0.1,0.3,0,0.4c-0.1,0.3-0.3,0.5-0.7,0.7c-0.4,0.1-0.9,0.2-1.7,0.2h-8.2
	c-0.6,0-1.1-0.1-1.3-0.3c-0.3-0.2-0.4-0.5-0.3-0.8c0.1-0.3,0.3-0.5,0.8-0.8c0.4-0.2,0.7-0.4,0.9-0.7s0.4-0.7,0.6-1.3l3.2-10.4
	c0-0.1,0.1-0.3,0.1-0.5c0-0.3-0.1-0.5-0.2-0.6c-0.1-0.1-0.3-0.3-0.5-0.5c-0.2-0.2-0.4-0.4-0.5-0.5c-0.1-0.1-0.1-0.3,0-0.6
	c0.1-0.6,0.9-1,2.3-1.4c1.4-0.4,2.8-0.6,4.3-0.6c1.2,0,2.1,0.3,2.8,1c0.7,0.6,1,1.5,1,2.7c1-1.4,2-2.3,3.1-2.8
	c1.1-0.5,2.3-0.8,3.6-0.8c1.4,0,2.5,0.4,3.4,1.2c0.9,0.8,1.4,1.8,1.5,3.1c1-1.6,2.1-2.8,3.3-3.4c1.2-0.6,2.5-1,3.9-1
	c1.5,0,2.6,0.4,3.5,1.3c0.9,0.9,1.4,2,1.4,3.5c0,0.7-0.1,1.5-0.4,2.2L-298.3,286z"/>
<path class="st0" d="M-276.1,272c1.1,0,1.9,0.4,2.5,1.3c0.6,0.8,1,2,1,3.5c0,1.3-0.2,2.6-0.7,4.1c-0.9,3-2.3,5.7-4.3,8.4
	c-1.9,2.6-4.2,4.7-6.7,6.3c-2.5,1.6-5,2.4-7.6,2.4c-1.2,0-2.3-0.2-3.2-0.6c-0.9-0.4-1.6-1-2-1.7c-0.5-0.7-0.7-1.5-0.7-2.3
	c0-0.4,0.1-0.8,0.2-1.2c0.2-0.7,0.6-1.2,1.1-1.5c0.5-0.4,1.1-0.5,1.8-0.5c1.1,0,2,0.4,2.7,1.1c0.7,0.8,1.2,1.8,1.4,3.1
	c1.5-0.1,3-0.7,4.2-2c-1.2-0.2-2.1-0.6-2.7-1.2c-0.6-0.6-1-1.6-1.2-2.9l-1.4-8.8c-0.1-0.5-0.2-0.8-0.3-0.9c-0.1-0.2-0.3-0.3-0.5-0.3
	c-0.2,0-0.4,0.1-0.6,0.3c-0.2,0.2-0.4,0.3-0.5,0.3c-0.2,0-0.3-0.2-0.3-0.6c0-0.3,0.1-0.7,0.2-1.1c0.4-1.4,1.2-2.5,2.4-3.5
	c1.2-1,2.5-1.4,4.1-1.4c1.5,0,2.7,0.5,3.4,1.4c0.7,0.9,1.2,2.3,1.4,4.2l1.1,7.9c0.1,0.6,0.3,0.9,0.6,0.9c0.4,0,0.9-0.4,1.5-1.2
	c0.6-0.8,1.1-1.9,1.7-3.3c-0.7-0.6-1.3-1.4-1.7-2.2c-0.4-0.8-0.6-1.7-0.6-2.7c0-0.7,0.1-1.4,0.3-2c0.3-1,0.7-1.7,1.3-2.2
	C-277.5,272.2-276.8,272-276.1,272z"/>
<path class="st0" d="M-258.1,264.4c2.6,0,4.5,0.4,5.8,1.2c1.3,0.8,1.9,1.7,1.9,2.8c0,0.9-0.4,1.6-1.2,2.1c-0.7,0.5-1.7,0.7-3,0.7
	c-1.1,0-2-0.3-2.6-0.8s-0.9-1.2-0.9-2.1c0-0.5,0.2-1,0.5-1.6c-0.7,0-1.3,0.2-1.8,0.5c-0.5,0.3-0.9,0.9-1.1,1.8
	c-0.1,0.5-0.2,1-0.2,1.5c0,0.6,0.1,1,0.3,1.4c0.2,0.3,0.5,0.5,0.9,0.5h2.1c1.2,0,1.9,0.4,1.9,1.2c0,0.1,0,0.2-0.1,0.4
	c-0.1,0.5-0.4,0.9-0.9,1.2c-0.4,0.3-1.1,0.4-2,0.4h-1.1l-3.6,11.7c-0.1,0.3-0.1,0.5-0.1,0.8c0,0.3,0.1,0.6,0.2,0.8
	c0.1,0.2,0.3,0.3,0.5,0.5c0.2,0.2,0.3,0.3,0.4,0.4c0.1,0.1,0.1,0.2,0,0.4c-0.1,0.3-0.4,0.5-0.7,0.7c-0.4,0.1-0.9,0.2-1.7,0.2h-8.2
	c-0.6,0-1.1-0.1-1.4-0.3c-0.3-0.2-0.4-0.5-0.3-0.8c0.1-0.3,0.3-0.5,0.8-0.8c0.4-0.2,0.7-0.4,0.9-0.7c0.2-0.3,0.4-0.7,0.6-1.3
	l2.8-9.2c0.1-0.4,0.2-0.7,0.2-1.1c0-0.5-0.1-0.9-0.3-1.1c-0.2-0.3-0.5-0.6-0.9-0.9c-0.3-0.2-0.5-0.4-0.6-0.5
	c-0.1-0.2-0.2-0.4-0.2-0.6c0-0.5,0.1-0.8,0.5-1c0.4-0.2,1-0.3,2-0.3h0.9c-0.2-0.6-0.3-1.2-0.3-1.8s0.1-1.2,0.3-1.9
	c0.5-1.2,1.4-2.3,2.9-3.1C-263.3,264.8-261.1,264.4-258.1,264.4z"/>
<path class="st0" d="M-243.9,272c3.3,0,5.7,0.7,7.2,2c1.6,1.3,2.3,3,2.3,5.2c0,0.7-0.1,1.5-0.3,2.4c-0.5,2-1.3,3.7-2.6,5.2
	c-1.2,1.5-2.8,2.6-4.6,3.4c-1.8,0.8-3.8,1.2-5.9,1.2c-3.3,0-5.8-0.7-7.4-2c-1.6-1.3-2.4-3.1-2.4-5.3c0-0.7,0.1-1.6,0.3-2.5
	c0.5-1.9,1.3-3.5,2.6-5c1.3-1.5,2.9-2.6,4.7-3.4C-248,272.4-246,272-243.9,272z M-244,275.2c-0.5,0-1,0.5-1.6,1.4
	c-0.6,0.9-1.2,2.6-2,5.1c-0.8,2.5-1.2,4.2-1.2,5.3c0,0.5,0.1,0.9,0.3,1.1c0.2,0.2,0.4,0.3,0.7,0.3c0.5,0,1-0.4,1.5-1.3
	c0.6-0.9,1.2-2.7,2.1-5.3c0.7-2.3,1.1-4,1.1-5.1c0-0.5-0.1-0.9-0.3-1C-243.5,275.3-243.7,275.2-244,275.2z"/>
<path class="st0" d="M-220.3,272c3.3,0,5.7,0.7,7.2,2c1.6,1.3,2.3,3,2.3,5.2c0,0.7-0.1,1.5-0.3,2.4c-0.5,2-1.3,3.7-2.6,5.2
	c-1.2,1.5-2.8,2.6-4.6,3.4c-1.8,0.8-3.8,1.2-5.9,1.2c-3.3,0-5.8-0.7-7.4-2c-1.6-1.3-2.4-3.1-2.4-5.3c0-0.7,0.1-1.6,0.3-2.5
	c0.5-1.9,1.3-3.5,2.6-5c1.3-1.5,2.9-2.6,4.7-3.4C-224.4,272.4-222.4,272-220.3,272z M-220.4,275.2c-0.5,0-1,0.5-1.6,1.4
	c-0.6,0.9-1.2,2.6-2,5.1c-0.8,2.5-1.2,4.2-1.2,5.3c0,0.5,0.1,0.9,0.3,1.1c0.2,0.2,0.4,0.3,0.7,0.3c0.5,0,1-0.4,1.5-1.3
	c0.6-0.9,1.2-2.7,2.1-5.3c0.7-2.3,1.1-4,1.1-5.1c0-0.5-0.1-0.9-0.3-1C-219.9,275.3-220.1,275.2-220.4,275.2z"/>
<path class="st0" d="M-190.5,285.8c0,0.2-0.1,0.3-0.1,0.4c0,0.2,0,0.3,0.1,0.4c0.1,0.1,0.2,0.1,0.4,0.1c0.3,0,0.5-0.1,0.7-0.4
	c0.2-0.3,0.4-0.4,0.4-0.4c0.1,0,0.2,0.1,0.3,0.3c0.1,0.2,0.1,0.4,0.1,0.6c0,0.6-0.2,1.3-0.8,2c-0.5,0.7-1.2,1.2-2.1,1.7
	c-0.9,0.4-1.8,0.6-2.8,0.6c-1.2,0-2.2-0.2-3.1-0.7c-0.9-0.5-1.5-1.1-1.8-1.8c-0.6,0.8-1.4,1.5-2.2,1.9s-1.7,0.6-2.7,0.6
	c-1.1,0-2.1-0.3-3.1-0.8c-0.9-0.6-1.7-1.3-2.3-2.3c-0.6-1-0.8-2.2-0.8-3.5c0-2.2,0.4-4.2,1.2-6.2c0.8-1.9,2-3.5,3.5-4.7
	c1.5-1.2,3.2-1.8,5.1-1.8c1,0,1.9,0.1,2.6,0.4c0.7,0.2,1.4,0.6,2,1.1l1.2-4c0.1-0.2,0.1-0.4,0.1-0.5c0-0.3-0.1-0.5-0.2-0.6
	c-0.1-0.2-0.3-0.3-0.5-0.5c-0.2-0.2-0.4-0.4-0.5-0.5c-0.1-0.1-0.1-0.3,0-0.6c0.1-0.6,0.9-1,2.3-1.4c1.4-0.4,2.8-0.6,4.3-0.6
	c1.4,0,2.4,0.3,3.1,0.8c0.7,0.5,1,1.2,1,2.2c0,0.5-0.1,1-0.3,1.5L-190.5,285.8z M-196.5,275.7c-0.4-0.3-0.8-0.5-1.3-0.5
	c-0.7,0-1.4,0.5-2.1,1.5c-0.7,1-1.2,2.3-1.6,3.7c-0.4,1.5-0.6,2.8-0.6,4c0,1.3,0.4,2,1.3,2c0.3,0,0.6-0.1,0.8-0.4
	c0.2-0.3,0.4-0.7,0.6-1.3L-196.5,275.7z"/>
</svg>
